<?xml version="1.0" encoding="utf-8"?>
<!-- Generator: Adobe Illustrator 28.1.0, SVG Export Plug-In . SVG Version: 6.00 Build 0)  -->
<svg version="1.1" id="Capa_1" xmlns="http://www.w3.org/2000/svg" xmlns:xlink="http://www.w3.org/1999/xlink" x="0px" y="0px"
	 viewBox="0 0 800 800" style="enable-background:new 0 0 800 800;" xml:space="preserve">
<style type="text/css">
	.st0{fill:#1672D1;}
</style>
<g>
	<g>
		<path class="st0" d="M400,0C179.4,0,0,179.4,0,400s179.4,400,400,400s400-179.4,400-400S620.6,0,400,0z M400,718.6
			C224.3,718.6,81.4,575.7,81.4,400S224.3,81.4,400,81.4S718.6,224.3,718.6,400S575.7,718.6,400,718.6z"/>
		<path class="st0" d="M629.4,268.9l-51.1-51.1c-3.6-3.6-10-3.6-13.6,0L323,459.5l-87.7-87.7c-3.6-3.6-10-3.6-13.6,0l-51.1,51.1
			c-1.8,1.8-2.8,4.2-2.8,6.8c0,2.5,1,5,2.8,6.8l145.6,145.6c1.9,1.9,4.3,2.8,6.8,2.8c2.5,0,4.9-0.9,6.8-2.8l299.6-299.6
			c1.8-1.8,2.8-4.2,2.8-6.8C632.2,273.2,631.2,270.7,629.4,268.9z"/>
	</g>
</g>
</svg>
