<?xml version="1.0" encoding="utf-8"?>
<!-- Generator: Adobe Illustrator 28.1.0, SVG Export Plug-In . SVG Version: 6.00 Build 0)  -->
<svg version="1.1" id="_x32_" xmlns="http://www.w3.org/2000/svg" xmlns:xlink="http://www.w3.org/1999/xlink" x="0px" y="0px"
	 viewBox="0 0 800 800" style="enable-background:new 0 0 800 800;" xml:space="preserve">
<style type="text/css">
	.st0{fill:#1672D1;}
</style>
<g>
	<path class="st0" d="M758.2,125.9H41.8C18.8,125.9,0,144.7,0,167.8v464.4c0,23.1,18.8,41.9,41.8,41.9h716.3
		c23.1,0,41.8-18.8,41.8-41.9V167.8C800,144.7,781.2,125.9,758.2,125.9z M206.5,443.4v-7c0-3.6-0.6-7.1-2.1-11.2
		c-0.3-0.4-29.4-39.6-29.4-75.1c0-42.3,26.5-72.9,63.1-72.9s63.1,30.7,63.1,72.9c0,35.5-29.1,74.7-29.7,75.8
		c-1.2,3.4-1.8,6.9-1.8,10.5v7c0,9.7,5.7,18.5,14.5,22.6l47.4,19.4c10.3,4.7,17.6,14.2,19.6,25.1l2.2,28.8H122.8l2.2-28.5
		c2-11.1,9.4-20.6,19.6-25.3l47.6-19.4C200.8,461.9,206.5,453.1,206.5,443.4z M670.8,478.7v46.2h-254v-46.2H670.8z M670.8,379.4
		v46.2h-254v-46.2H670.8L670.8,379.4z M361.7,326.2V280h309.1v46.2H361.7L361.7,326.2z"/>
</g>
</svg>
