<?xml version="1.0" encoding="utf-8"?>
<!-- Generator: Adobe Illustrator 28.1.0, SVG Export Plug-In . SVG Version: 6.00 Build 0)  -->
<svg version="1.1" id="Layer_1" xmlns="http://www.w3.org/2000/svg" xmlns:xlink="http://www.w3.org/1999/xlink" x="0px" y="0px"
	 viewBox="0 0 800 800" style="enable-background:new 0 0 800 800;" xml:space="preserve">
<style type="text/css">
	.st0{fill:#1672D1;}
</style>
<path class="st0" d="M0,700V200c0-13.9,4.8-25.6,14.4-35.2c9.6-9.6,21.6-14.4,36-14.4h100c13.3,0,25.1-4.8,35.2-14.4
	c10.1-9.6,14.9-21.6,14.4-36c-0.5-14.4,4.3-26.1,14.4-35.2c10.1-9.1,22.1-13.9,36-14.4h300c13.3,0,25.1,4.8,35.2,14.4
	c10.1,9.6,14.9,21.3,14.4,35.2s4.3,25.9,14.4,36c10.1,10.1,22.1,14.9,36,14.4h100c13.3,0,25.1,4.8,35.2,14.4
	c10.1,9.6,14.9,21.3,14.4,35.2v500c0,13.9-4.8,25.9-14.4,36c-9.6,10.1-21.3,14.9-35.2,14.4h-700c-13.9,0-25.9-4.8-36-14.4
	S-0.5,714.4,0,700L0,700z M150.4,400c0,34.1,6.4,66.7,19.2,97.6c12.8,30.9,30.7,57.3,53.6,79.2c22.9,21.9,49.6,39.7,80,53.6
	c30.4,13.9,62.7,20.5,96.8,20c45.3,0,87.2-11.2,125.6-33.6c38.4-22.4,68.8-52.8,91.2-91.2c22.4-38.4,33.6-80.3,33.6-125.6
	s-11.2-86.9-33.6-124.8c-22.4-37.9-52.8-68.3-91.2-91.2s-80.3-34.1-125.6-33.6c-33.6,0-65.9,6.7-96.8,20
	c-30.9,13.3-57.6,30.9-80,52.8s-40.3,48.5-53.6,80S149.9,366.9,150.4,400L150.4,400z M250.4,400c0-41.1,14.4-76.3,43.2-105.6
	s64.3-44,106.4-44s77.6,14.7,106.4,44c28.8,29.3,43.5,64.5,44,105.6c0.5,41.1-14.1,76.5-44,106.4c-29.9,29.9-65.3,44.5-106.4,44
	c-41.1-0.5-76.5-15.2-106.4-44C263.7,477.6,249.3,442.1,250.4,400z"/>
</svg>
