<?xml version="1.0" encoding="utf-8"?>
<!-- Generator: Adobe Illustrator 28.1.0, SVG Export Plug-In . SVG Version: 6.00 Build 0)  -->
<svg version="1.1" id="Layer_1" xmlns="http://www.w3.org/2000/svg" xmlns:xlink="http://www.w3.org/1999/xlink" x="0px" y="0px"
	 viewBox="0 0 800 800" style="enable-background:new 0 0 800 800;" xml:space="preserve">
<style type="text/css">
	.st0{fill:#1672D1;}
</style>
<g>
	<path class="st0" d="M646.2,353.8H153.8c-33.8,0-61.5,27.7-61.5,61.5v292.3c0,33.8,27.7,61.5,61.5,61.5h492.3
		c33.8,0,61.5-27.7,61.5-61.5V415.4C707.7,381.5,680,353.8,646.2,353.8z M476.9,684.6c-23.1,15.4-49.2,23.1-76.9,23.1
		c-9.2,0-18.5-1.5-27.7-3.1c-36.9-7.7-67.7-27.7-87.7-58.5l50.8-33.8c10.8,16.9,29.2,29.2,49.2,32.3c20,4.6,40,0,58.5-12.3
		c35.4-23.1,44.6-72.3,21.5-106.2c-10.8-16.9-29.2-29.2-49.2-32.3c-20-4.6-40,0-58.5,12.3c-4.6,3.1-7.7,6.2-10.8,9.2l53.8,53.8
		H261.5V430.8l40,40c6.2-6.2,13.8-12.3,20-16.9c30.8-20,67.7-27.7,104.6-21.5c36.9,7.7,67.7,27.7,87.7,58.5
		C556.9,555.4,540,641.5,476.9,684.6z"/>
	<path class="st0" d="M153.8,278.5v6.2C153.8,283.1,153.8,281.5,153.8,278.5L153.8,278.5z"/>
	<path class="st0" d="M169.2,292.3h61.5c9.2,0,15.4-4.6,15.4-13.8v-1.5c0-87.7,75.4-160,164.6-153.8c81.5,6.2,143.1,76.9,143.1,160
		v-4.6c0,9.2,6.2,13.8,15.4,13.8h61.5c9.2,0,15.4-4.6,15.4-13.8v-1.5c0-140-116.9-252.3-258.5-246.2
		c-130.8,6.2-230.8,116.9-233.8,247.7C155.4,286.2,161.5,292.3,169.2,292.3z"/>
</g>
</svg>
