<?xml version="1.0" encoding="utf-8"?>
<!-- Generator: Adobe Illustrator 28.1.0, SVG Export Plug-In . SVG Version: 6.00 Build 0)  -->
<svg version="1.1" id="Layer_1" xmlns="http://www.w3.org/2000/svg" xmlns:xlink="http://www.w3.org/1999/xlink" x="0px" y="0px"
	 viewBox="0 0 512 512" style="enable-background:new 0 0 512 512;" xml:space="preserve">
<style type="text/css">
	.st0{fill:#1672D1;}
</style>
<g>
	<g>
		<path class="st0" d="M295,478.6c-27.6,0-50.1-22.5-50.1-50.1c0-9.2-7.5-16.7-16.7-16.7H16.7c-9.2,0-16.7,7.5-16.7,16.7
			c0,46,37.4,83.5,83.5,83.5H295c9.2,0,16.7-7.5,16.7-16.7C311.7,486.1,304.2,478.6,295,478.6z"/>
	</g>
</g>
<g>
	<g>
		<path class="st0" d="M510.2,209.6l-33.4-66.8c-2.8-5.7-8.6-9.2-14.9-9.2s-12.1,3.6-14.9,9.2l-33.4,66.8c-1.2,2.3-1.8,4.9-1.8,7.5
			v16.7H512V217C512,214.5,511.4,211.9,510.2,209.6z"/>
	</g>
</g>
<g>
	<g>
		<rect x="411.8" y="267.1" class="st0" width="100.2" height="144.7"/>
	</g>
</g>
<g>
	<g>
		<path class="st0" d="M411.8,445.2v16.7c0,27.6,22.5,50.1,50.1,50.1s50.1-22.5,50.1-50.1v-16.7L411.8,445.2L411.8,445.2z"/>
	</g>
</g>
<g>
	<g>
		<path class="st0" d="M428.5,0H150.3c-46,0-83.5,37.4-83.5,83.5v295h161.4c27.6,0,50.1,22.5,50.1,50.1c0,9.2,7.5,16.7,16.7,16.7
			c27.6,0,50,22.4,50.1,49.9c20.2-15.2,33.4-39.4,33.4-66.6V100.2h116.9c9.2,0,16.7-7.5,16.7-16.7C512,37.4,474.6,0,428.5,0z
			 M150.3,333.9c-9.2,0-16.7-7.5-16.7-16.7s7.5-16.7,16.7-16.7S167,308,167,317.2S159.5,333.9,150.3,333.9z M150.3,267.1
			c-9.2,0-16.7-7.5-16.7-16.7c0-9.2,7.5-16.7,16.7-16.7s16.7,7.5,16.7,16.7S159.5,267.1,150.3,267.1z M150.3,200.3
			c-9.2,0-16.7-7.5-16.7-16.7c0-9.2,7.5-16.7,16.7-16.7s16.7,7.5,16.7,16.7S159.5,200.3,150.3,200.3z M150.3,133.6
			c-9.2,0-16.7-7.5-16.7-16.7s7.5-16.7,16.7-16.7s16.7,7.5,16.7,16.7S159.5,133.6,150.3,133.6z M295,333.9H217
			c-9.2,0-16.7-7.5-16.7-16.7c0-9.2,7.5-16.7,16.7-16.7H295c9.2,0,16.7,7.5,16.7,16.7C311.7,326.4,304.2,333.9,295,333.9z
			 M295,267.1H217c-9.2,0-16.7-7.5-16.7-16.7s7.5-16.7,16.7-16.7H295c9.2,0,16.7,7.5,16.7,16.7C311.7,259.7,304.2,267.1,295,267.1z
			 M295,200.3H217c-9.2,0-16.7-7.5-16.7-16.7S207.8,167,217,167H295c9.2,0,16.7,7.5,16.7,16.7C311.7,192.9,304.2,200.3,295,200.3z
			 M295,133.6H217c-9.2,0-16.7-7.5-16.7-16.7s7.5-16.7,16.7-16.7H295c9.2,0,16.7,7.5,16.7,16.7C311.7,126.1,304.2,133.6,295,133.6z
			 M381.3,66.8c6.9-19.4,25.5-33.4,47.2-33.4c21.8,0,40.3,14,47.2,33.4H381.3z"/>
	</g>
</g>
</svg>
