<?xml version="1.0" encoding="iso-8859-1"?>
<!-- Uploaded to: SVG Repo, www.svgrepo.com, Generator: SVG Repo Mixer Tools -->
<svg fill="#000000" height="800px" width="800px" version="1.1" id="Capa_1" xmlns="http://www.w3.org/2000/svg" xmlns:xlink="http://www.w3.org/1999/xlink" 
	 viewBox="0 0 489.186 489.186" xml:space="preserve">
<g>
	<g id="Icons_47_">
		<g>
			<path d="M417.513,0H71.679C51.357,0,34.874,16.471,34.874,36.799v415.585c0,20.335,16.482,36.802,36.805,36.802h345.834
				c20.322,0,36.799-16.467,36.799-36.802V36.799C454.312,16.471,437.835,0,417.513,0z M244.591,462.686
				c-11.254,0-20.383-9.122-20.383-20.38c0-11.259,9.129-20.384,20.383-20.384c11.262,0,20.385,9.125,20.385,20.384
				C264.976,453.564,255.853,462.686,244.591,462.686z M405.617,387.462c0,7.771-6.306,14.075-14.077,14.075H97.649
				c-7.771,0-14.077-6.305-14.077-14.075V54.843c0-7.773,6.307-14.078,14.077-14.078h293.892c7.771,0,14.077,6.305,14.077,14.078
				v332.619H405.617z"/>
			<path d="M198.034,209.942h79.491c16.482,0,29.968-12.483,31.882-28.473c-4.844,4.556-10.928,7.643-17.629,8.601
				c-1.546,0.223-3.088,0.319-4.635,0.319c-7.914,0-15.637-2.885-21.643-8.202l-5.397-4.792l-61.737,0.271l-0.332-79.158
				l38.965-0.162c9.457-5.094,20.939-5.222,30.591-0.126l9.585-0.049v7.184l2.801,2.483l20.366-32.453
				c-5.843-5.863-13.915-9.492-22.816-9.492h-79.491c-17.805,0-32.277,14.49-32.277,32.277v79.495
				C165.757,195.451,180.23,209.942,198.034,209.942z"/>
			<path d="M343.226,68.394c-7.609-4.762-17.691-2.47-22.468,5.143l-37.198,59.269l-20.35-18.024
				c-6.734-5.989-17.037-5.382-23.008,1.369c-5.973,6.737-5.369,17.04,1.381,23.026l34.744,30.798
				c2.998,2.676,6.854,4.106,10.816,4.106c0.763,0,1.547-0.047,2.309-0.158c4.746-0.669,8.948-3.41,11.5-7.469l47.422-72.788
				C353.167,86.02,350.858,73.187,343.226,68.394z"/>
			<path d="M287.144,362.526c-7.914,0-15.637-2.898-21.643-8.216l-5.397-4.778l-61.737,0.254l-0.332-79.142l38.949-0.161
				c9.473-5.094,20.955-5.239,30.606-0.141l9.585-0.048v7.197l2.801,2.484l20.366-32.452c-5.843-5.859-13.915-9.491-22.816-9.491
				h-79.491c-17.805,0-32.277,14.476-32.277,32.263v79.491c0,17.804,14.473,32.278,32.277,32.278h79.491
				c16.482,0,29.968-12.467,31.882-28.457c-4.844,4.539-10.928,7.629-17.629,8.601C290.233,362.413,288.691,362.526,287.144,362.526
				z"/>
			<path d="M343.226,240.514c-7.609-4.761-17.691-2.466-22.468,5.16l-37.198,59.271l-20.35-18.043
				c-6.734-5.97-17.037-5.383-23.008,1.386c-5.973,6.721-5.369,17.04,1.381,23.011l34.744,30.812
				c2.998,2.676,6.854,4.106,10.816,4.106c0.763,0,1.547-0.062,2.309-0.157c4.746-0.686,8.948-3.423,11.5-7.485l47.422-75.574
				C353.167,255.371,350.858,245.31,343.226,240.514z"/>
		</g>
	</g>
</g>
</svg>