<?xml version="1.0" encoding="utf-8"?>
<!-- Generator: Adobe Illustrator 28.1.0, SVG Export Plug-In . SVG Version: 6.00 Build 0)  -->
<svg version="1.1" id="Layer_1" xmlns="http://www.w3.org/2000/svg" xmlns:xlink="http://www.w3.org/1999/xlink" x="0px" y="0px"
	 viewBox="0 0 800 800" style="enable-background:new 0 0 800 800;" xml:space="preserve">
<style type="text/css">
	.st0{fill:#1672D1;}
</style>
<path class="st0" d="M400,0C179.4,0,0,179.4,0,400s179.4,400,400,400s400-179.4,400-400S620.6,0,400,0z M187.8,187.8
	c19.6-19.6,51.3-19.5,70.7,0c19.6,19.6,19.8,51.3,0.1,70.8c-19.5,19.6-51,19.8-70.4,0.3l-0.4-0.4C168.4,239,168.4,207.3,187.8,187.8
	z M101.3,400c0-27.6,22.1-50,49.7-50h0.5c27.6,0,50,22.4,50,50c0,27.6-22.4,50-50,50C123.9,450,101.3,427.6,101.3,400z M258.9,611.6
	l-0.3,0.5c-19.6,19.4-51.2,19.5-70.7,0.1c-19.6-19.7-19.4-51.3,0.1-70.8c19.6-19.5,51.3-19.7,70.8-0.1
	C278.2,560.7,278.3,592.2,258.9,611.6z M450,400c0,27.6-22.4,50-50,50s-50-22.4-50-50V150c0-27.6,22.4-50,50-50
	c27.6,0,50,22.4,50,50V400z M541.1,188.2l0.4-0.4c19.5-19.5,51.2-19.5,70.7,0c19.6,19.6,19.5,51.2,0,70.7
	c-19.6,19.6-51.3,19.7-70.9,0.1C521.8,239.2,521.6,207.7,541.1,188.2z M612.2,612.2c-19.7,19.6-51.3,19.4-70.8-0.1
	c-19.6-19.5-19.8-51.4-0.2-70.8c19.6-19.6,51-19.7,70.5-0.2l0.5,0.3C631.5,560.9,631.6,592.6,612.2,612.2z M650,450
	c-27.6,0-50.2-22.4-50.2-50s22.1-50,49.7-50h0.5c27.6,0,50,22.4,50,50C700,427.6,677.6,450,650,450z"/>
</svg>
